<svg t="1685870012664" class="icon" viewBox="0 0 1024 1024" version="1.1" xmlns="http://www.w3.org/2000/svg" p-id="5807" width="200" height="200"><path d="M906.54475 1023.296484H245.559178a31.978015 31.978015 0 0 1 0-63.956031h651.967772V63.95603H254.576978v791.83961a31.978015 31.978015 0 0 1-63.95603 0V56.537131c0-31.210543 24.623072-56.537131 54.93823-56.537131h660.985572c30.315158 0 54.93823 25.326588 54.93823 56.537131v910.158266a55.769658 55.769658 0 0 1-54.93823 56.601087z" p-id="5808" fill="#2c2c2c"></path><path d="M222.407095 1023.296484H110.03635c-27.053401 0-47.51933-24.623072-47.51933-57.240647V264.650053c0-32.617575 20.401974-57.240647 47.51933-57.240647h25.198676a31.978015 31.978015 0 0 1 0 63.95603h-8.506152L126.47305 959.340453h95.934045a31.978015 31.978015 0 0 1 0 63.956031zM751.963025 481.013303h-351.758166c-35.239773 0-63.95603-28.716258-63.95603-63.95603v-95.934045c0-35.239773 28.716258-63.95603 63.95603-63.95603h351.758166c35.303729 0 63.95603 28.716258 63.956031 63.95603v95.934045c0 35.239773-28.652302 63.95603-63.956031 63.95603z m0-63.95603v31.978015-31.978015z m-351.822122-95.934045v95.934045h351.758166l0.063956-95.934045H400.140903zM767.824121 639.560302H384.08794a31.978015 31.978015 0 0 1 0-63.95603h383.736181a31.978015 31.978015 0 0 1 0 63.95603zM767.824121 767.472363H384.08794a31.978015 31.978015 0 0 1 0-63.95603h383.736181a31.978015 31.978015 0 0 1 0 63.95603z" p-id="5809" fill="#2c2c2c"></path></svg>