<svg t="1687250798159" class="icon" viewBox="0 0 1024 1024" version="1.1" xmlns="http://www.w3.org/2000/svg" p-id="12242" width="200" height="200"><path d="M512 42.496c258.048 0 469.504 211.456 469.504 469.504s-211.456 469.504-469.504 469.504S42.496 770.048 42.496 512C42.496 253.952 251.904 42.496 512 42.496zM213.504 512v8.704c0 2.048 0 2.048 2.048 4.096 0 2.048 0 2.048 2.048 4.096 0 2.048 2.048 2.048 2.048 4.096 0 0 0 2.048 2.048 2.048l6.656 6.144L398.848 711.68c4.096 8.704 16.896 12.8 27.648 12.8s21.504-4.096 29.696-12.8c16.896-16.896 16.896-42.496 0-59.904l-97.792-97.28h409.6c23.552 0 42.496-19.456 42.496-42.496s-19.456-42.496-42.496-42.496H358.4l98.304-98.304c16.896-16.896 16.896-42.496 0-59.904s-42.496-16.896-59.904 0L226.304 482.304l-6.656 6.144s-2.048 2.048-2.048 4.096-2.048 2.048-2.048 4.096 0 2.048-2.048 4.096v11.264z" fill="#41265C" p-id="12243"></path></svg>