<svg t="1685870114620" class="icon" viewBox="0 0 1024 1024" version="1.1" xmlns="http://www.w3.org/2000/svg" p-id="8738" width="200" height="200"><path d="M896.5 960H157.5v-23c0-47.5 9.8-93.6 29.2-137.1 18.7-41.8 45.4-79.4 79.4-111.6C300 656.2 339.5 631 383.5 613.4c45.4-18.2 93.7-27.4 143.4-27.4s98 9.2 143.4 27.4c44 17.6 83.5 42.8 117.4 74.9 34 32.2 60.8 69.8 79.4 111.6C886.7 843.4 896.5 889.5 896.5 937v23z m-692.1-46h645.2c-5.7-72.6-38.4-140.1-93.4-192.2-61.2-57.9-142.6-89.8-229.2-89.8s-168 31.9-229.2 89.8c-55 52.1-87.7 119.6-93.4 192.2z" fill="#2c2c2c" p-id="8739"></path><path d="M527.5 587c-100.4 0-182-77.3-182-172.4 0-41.1 16.1-81.3 45.5-113.2 4.4-4.7 10.5-7.4 16.9-7.4h240.7c6.3 0 12.3 2.6 16.7 7.2 28.9 30.5 44.2 69.7 44.2 113.4 0 95.1-81.6 172.4-182 172.4zM418.5 340c-17.5 22-27 48.1-27 74.6 0 69.7 61 126.4 136 126.4s136-56.7 136-126.4c0-28.8-8.5-53.8-25.3-74.6H418.5z" fill="#2c2c2c" p-id="8740"></path><path d="M659.7 340H388.3c-16.4 0-29.8-14-29.8-31.3V155c0-12.7 10.3-23 23-23s23 10.3 23 23v139h239V155c0-12.7 10.3-23 23-23s23 10.3 23 23v153.7c0 17.3-13.3 31.3-29.8 31.3z" fill="#2c2c2c" p-id="8741"></path><path d="M526 243c-8.6 0-17.3-1.1-23.8-3.3L247.5 153.5l254.7-86.2c13.1-4.4 34.5-4.4 47.7 0L804.5 153.5l-254.6 86.2c-6.6 2.2-15.3 3.3-23.9 3.3z m-134.9-89.5l125.9 42.6c3.7 1.2 14.5 1.2 18.2 0l125.9-42.6-126-42.6c-3.7-1.2-14.5-1.2-18.2 0l-125.8 42.6zM766.5 189h2c12.2 0 22 9.8 22 22v212c0 12.2-9.8 22-22 22h-2c-12.2 0-22-9.8-22-22V211c0-12.2 9.8-22 22-22z" fill="#2c2c2c" p-id="8742"></path></svg>