<svg t="1685869984019" class="icon" viewBox="0 0 1024 1024" version="1.1" xmlns="http://www.w3.org/2000/svg" p-id="4566" width="200" height="200"><path d="M598.15936 40.96C629.76 40.96 655.36 66.9696 655.36 99.072L655.34976 450.56h-33.36192V136.57088c0-29.75744-9.08288-47.2064-33.05472-47.2064-21.28896 0-49.2544 26.58304-84.8896 47.2064-35.62496 20.6336-60.98944 22.6304-76.25728 28.39552-10.92608 8.3456-15.4112 13.06624-15.4112 36.48512v36.5056l-0.08192 212.5312L378.88 450.56l0.01024-277.77024v-4.608c0-25.25184 5.90848-30.34112 20.31616-39.34208 20.13184-6.21568 46.336-7.51616 93.30688-29.76768C539.47392 76.82048 570.10176 40.96 598.15936 40.96z" fill="#2c2c2c" p-id="4567"></path><path d="M655.36 450.56a81.92 81.92 0 0 1 81.92 81.92v368.64a81.92 81.92 0 0 1-81.92 81.92H378.88a81.92 81.92 0 0 1-81.92-81.92V532.48a81.92 81.92 0 0 1 81.92-81.92h276.48z m-40.96 40.96H419.84a81.92 81.92 0 0 0-81.92 81.92v286.72a81.92 81.92 0 0 0 81.92 81.92h194.56a81.92 81.92 0 0 0 81.92-81.92V573.44a81.92 81.92 0 0 0-81.92-81.92z" fill="#2c2c2c" p-id="4568"></path></svg>